<?xml version="1.0" encoding="UTF-8"?>
<svg id="Camada_2" data-name="Camada 2" xmlns="http://www.w3.org/2000/svg" viewBox="0 0 566.93 117.39">
  <defs>
    <style>
      .cls-1 {
        fill: #18203f;
        fill-rule: evenodd;
      }
    </style>
  </defs>
  <g id="Camada_1-2" data-name="Camada 1">
    <path class="cls-1" d="M213.82,53.08v49.38c0,12.05,3.73,14.93,15.22,14.93h40.48c11.77,0,15.21-2.87,15.21-14.93v-49.38h-13.49v53.11h-43.64v-53.11h-13.78ZM390.66,53.08h0v64.31h13.5v-24.69h20.38l29.85,24.69h19.52l-33.87-24.69c5.17,0,16.65.29,20.96-.86,5.45-1.44,7.18-5.45,7.18-11.2v-15.5c0-9.47-4.88-12.06-13.78-12.06h-63.73ZM447.79,63.41h0c4.31,0,7.46.57,7.46,5.45v8.04c0,4.88-2.87,5.74-7.46,5.74h-43.63v-19.23h43.63ZM113.92,53.08h0v64.31h13.49v-24.69h20.38l29.86,24.69h19.52l-33.87-24.69c5.17,0,16.65.29,20.95-.86,5.74-1.44,7.46-5.45,7.46-11.2v-15.5c0-9.47-5.17-12.06-14.06-12.06h-63.73ZM171.34,63.41h0c4.31,0,7.18.57,7.18,5.45v8.04c0,4.88-2.87,5.74-7.18,5.74h-43.92v-19.23h43.92ZM301.38,63.7h29.28v53.68h13.78v-53.68h29.57v-10.62h-72.63v10.62h0ZM518.13,53.37h0l-35.89,64.02h13.49l7.75-14.35h40.19l7.46,14.35h15.79l-35.89-64.02h-12.92ZM509.51,92.41h0l14.64-26.98,14.07,26.98h-28.71ZM26.11,7.24l-11.19,11.41v7.68c-5.7,4.17-10.97,9.43-14.92,15.14l5.49,9.44c3.07-1.32,6.14-2.64,9.43-4.17v-3.29l22.82-10.53,1.53,2.85c-12.5,9-22.38,21.94-27.42,36.86,6.14,4.39,13.16,7.68,20.62,9.87-8.12,11.63-19.31,20.62-32.47,26.11l2.85,8.78h64.07l3.29-8.78c-9.44-5.05-16.9-13.16-20.85-23.04,1.76,0,3.07.22,4.61.22s3.07-.22,4.82-.44c9.88-12.51,15.8-28.53,15.8-45.64,0-20.63-16.68-37.08-36.86-37.08h-5.05c-4.39,0-8.34-.88-12.07-2.63l-.88.66,6.36,6.58Z"/>
  </g>
</svg>